<?xml version="1.0" standalone="no"?><!DOCTYPE svg PUBLIC "-//W3C//DTD SVG 1.1//EN" "http://www.w3.org/Graphics/SVG/1.1/DTD/svg11.dtd"><svg t="1584515429150" class="icon" viewBox="0 0 1024 1024" version="1.1" xmlns="http://www.w3.org/2000/svg" p-id="6234" xmlns:xlink="http://www.w3.org/1999/xlink" width="200" height="200"><defs><style type="text/css"></style></defs><path d="M964.265 416.716a30.153 30.153 0 0 1-30.153-30.153v-163.43H773.094a30.153 30.153 0 0 1 0-60.306H995.02V384.15a30.153 30.153 0 0 1-30.756 32.565zM262.3 925.098H40.373V703.774a30.153 30.153 0 0 1 60.306 0v161.62H262.3a30.153 30.153 0 0 1 0 60.307z m554.214-353.395v82.62h171.27v235.194h-50.657v-26.535H816.514V1024h-51.863V862.38H644.038v26.534h-50.657V653.72h170.667v-82.017z m-51.863 241.225V703.171H644.038v110.36z m172.476 0V703.171H816.514v110.36z" fill="#A2A2A2" p-id="6235"></path><path d="M373.867 0h143.528l86.238 607.887H466.135l-13.267-124.834H229.132l-68.147 124.834H28.312z m-88.048 378.12H439.6l-25.328-241.225z" fill="#0095FF" p-id="6236"></path></svg>