<?xml version="1.0" standalone="no"?><!DOCTYPE svg PUBLIC "-//W3C//DTD SVG 1.1//EN" "http://www.w3.org/Graphics/SVG/1.1/DTD/svg11.dtd"><svg t="1584894677973" class="icon" viewBox="0 0 1109 1024" version="1.1" xmlns="http://www.w3.org/2000/svg" xmlns:xlink="http://www.w3.org/1999/xlink" width="216.6015625" height="200"><defs><style type="text/css"></style></defs><path d="M999.850667 0c49.749333 0 90.026667 40.234667 90.026666 89.898667v629.162666a89.984 89.984 0 0 1-90.026666 89.898667H954.88v89.898667a89.984 89.984 0 0 1-90.026667 89.856H99.328a89.984 89.984 0 0 1-90.026667-89.856V269.653333c0-49.664 40.32-89.898667 90.026667-89.898666h45.013333V89.898667C144.384 40.234667 184.746667 0 234.453333 0h765.44z m-571.733334 390.272H190.122667v375.168h243.541333v-75.605333H280.362667V610.133333h125.568v-75.648H280.362667v-69.546666h147.754666v-74.666667z m171.648 0h-91.776v375.168h85.76v-124.544c0-45.397333-7.594667-96.853333-11.648-138.666667h2.56l36.778667 82.176 92.8 181.034667h91.776V390.272h-85.76v124.074667c0 44.842667 7.082667 98.816 12.16 138.666666h-2.56l-36.778667-83.2-93.312-179.541333z m401.706667-347.050667H232.832c-24.96 0-45.226667 20.096-45.226667 44.928V177.92h678.229334c49.92 0 90.453333 40.192 90.453333 89.813333v494.037334h45.226667c24.917333 0 45.184-20.138667 45.184-44.928V88.106667c0-24.746667-20.266667-44.885333-45.226667-44.885334z"></path></svg>