<?xml version="1.0" standalone="no"?><!DOCTYPE svg PUBLIC "-//W3C//DTD SVG 1.1//EN" "http://www.w3.org/Graphics/SVG/1.1/DTD/svg11.dtd"><svg t="1584894663704" class="icon" viewBox="0 0 1109 1024" version="1.1" xmlns="http://www.w3.org/2000/svg" xmlns:xlink="http://www.w3.org/1999/xlink" width="216.6015625" height="200"><defs><style type="text/css"></style></defs><path d="M1001.088 2.389333a90.026667 90.026667 0 0 1 90.112 89.941334V721.92a90.026667 90.026667 0 0 1-90.112 89.941333h-45.056v89.941334a90.026667 90.026667 0 0 1-90.069333 89.898666H100.096a90.026667 90.026667 0 0 1-90.026667-89.941333V272.213333a90.026667 90.026667 0 0 1 90.026667-89.941333h45.098667V92.330667A90.026667 90.026667 0 0 1 235.264 2.389333h765.866667zM521.386667 348.416h-73.514667v81.706667H286.506667v250.965333h69.674666v-24.874667h91.648v146.261334h73.514667V656.213333h92.16v22.485334h73.002667V430.08h-165.12V348.373333zM1002.709333 45.653333H233.685333c-25.002667 0-45.226667 20.096-45.226666 44.928V180.48H866.986667c49.962667 0 90.496 40.234667 90.496 89.856v494.293333h45.226666c25.002667 0 45.226667-20.138667 45.226667-44.928V90.581333c0-24.832-20.224-44.928-45.226667-44.928zM448.682667 499.754667v91.904H356.778667v-91.904h91.904z m167.552 0v91.904H524.373333v-91.904h91.904z"></path></svg>