<?xml version="1.0" standalone="no"?><!DOCTYPE svg PUBLIC "-//W3C//DTD SVG 1.1//EN" "http://www.w3.org/Graphics/SVG/1.1/DTD/svg11.dtd"><svg t="1588941210339" class="icon" viewBox="0 0 1109 1024" version="1.1" xmlns="http://www.w3.org/2000/svg" xmlns:xlink="http://www.w3.org/1999/xlink" width="216.6015625" height="200"><defs><style type="text/css"></style></defs><path d="M406.277148 812.545762A403.793968 403.793968 0 0 1 0.008533 406.36248 403.793968 403.793968 0 0 1 406.277148 0.008533a403.793968 403.793968 0 0 1 406.268614 406.268615 403.793968 403.793968 0 0 1-406.183282 406.268614z m0-696.484863a287.400272 287.400272 0 0 0-290.130916 290.216249c0 162.558645 127.657603 290.216248 290.130916 290.216248 162.558645 0 290.216248-127.657603 290.216248-290.130916 0-162.558645-127.657603-290.301581-290.130916-290.301581z m545.275456 890.701911L778.754044 834.561579a55.466204 55.466204 0 0 1 0-80.38333c23.039808-23.039808 57.59952-23.039808 80.639328 0l172.79856 172.286564a55.466204 55.466204 0 0 1 0 80.38333 55.807535 55.807535 0 0 1-80.639328 0z"></path></svg>