<?xml version="1.0" standalone="no"?><!DOCTYPE svg PUBLIC "-//W3C//DTD SVG 1.1//EN" "http://www.w3.org/Graphics/SVG/1.1/DTD/svg11.dtd"><svg t="1585383578318" class="icon" viewBox="0 0 1024 1024" version="1.1" xmlns="http://www.w3.org/2000/svg" xmlns:xlink="http://www.w3.org/1999/xlink" width="200" height="200"><defs><style type="text/css"></style></defs><path d="M651.377778 378.311111c22.755556 22.755556 22.755556 56.888889 0 76.8L455.111111 651.377778c-22.755556 22.755556-56.888889 22.755556-76.8 0-22.755556-22.755556-22.755556-56.888889 0-76.8l196.266667-196.266667c19.911111-19.911111 54.044444-19.911111 76.8 0z m0-156.444444l-116.622222 116.622222c-22.755556 22.755556-56.888889 22.755556-76.8 0s-22.755556-56.888889 0-76.8l156.444444-156.444445c22.755556-22.755556 56.888889-22.755556 76.8 0l233.244444 233.244445c22.755556 22.755556 22.755556 56.888889 0 76.8L768 574.577778c-22.755556 22.755556-56.888889 22.755556-76.8 0s-22.755556-56.888889 0-76.8l116.622222-116.622222-156.444444-159.288889z m-273.066667 585.955555l116.622222-116.622222c22.755556-22.755556 56.888889-22.755556 76.8 0s22.755556 56.888889 0 76.8l-156.444444 156.444444c-22.755556 22.755556-56.888889 22.755556-76.8 0l-233.244445-233.244444c-22.755556-22.755556-22.755556-56.888889 0-76.8l156.444445-156.444444c22.755556-22.755556 56.888889-22.755556 76.8 0 22.755556 22.755556 22.755556 56.888889 0 76.8l-116.622222 116.622222 156.444444 156.444444z"></path></svg>