<?xml version="1.0" standalone="no"?><!DOCTYPE svg PUBLIC "-//W3C//DTD SVG 1.1//EN" "http://www.w3.org/Graphics/SVG/1.1/DTD/svg11.dtd"><svg t="1585210517391" class="icon" viewBox="0 0 1024 1024" version="1.1" xmlns="http://www.w3.org/2000/svg" xmlns:xlink="http://www.w3.org/1999/xlink" width="200" height="200"><defs><style type="text/css"></style></defs><path d="M512 0c282.784 0 512 229.216 512 512s-229.216 512-512 512S0 794.784 0 512 229.216 0 512 0z m-135.776 330.976a32 32 0 1 0-45.248 45.248L466.752 512l-135.776 135.776a32 32 0 1 0 45.248 45.248L512 557.248l135.776 135.776a32 32 0 1 0 45.248-45.248L557.248 512l135.776-135.776a32 32 0 1 0-45.248-45.248L512 466.752z" fill="#D8D8D8"></path></svg>