<?xml version="1.0" standalone="no"?><!DOCTYPE svg PUBLIC "-//W3C//DTD SVG 1.1//EN" "http://www.w3.org/Graphics/SVG/1.1/DTD/svg11.dtd"><svg t="1585737485121" class="icon" viewBox="0 0 1036 1024" version="1.1" xmlns="http://www.w3.org/2000/svg" p-id="6756" xmlns:xlink="http://www.w3.org/1999/xlink" width="202.34375" height="200"><defs><style type="text/css"></style></defs><path d="M383.76 0v141.991h295.495v406.146H591.63v-46.05H383.76v277.586h-89.544V502.086H86.986v45.412H0V141.99h294.216V0z m-89.544 417.659v-191.88H86.986v191.88z m297.414 0v-191.88H383.76v191.88z" fill="#0095FF" p-id="6757"></path><path d="M1002.893 481.619a31.98 31.98 0 0 1-31.98-31.98V278.866H800.14a31.98 31.98 0 0 1 0-63.96h235.373v234.733a31.98 31.98 0 0 1-32.62 31.98zM258.4 1023.36H23.026V788.627a31.98 31.98 0 0 1 63.96 0V960.04h171.413a31.98 31.98 0 1 1 0 63.96z m590.99-385.039h86.986l52.447 369.689h-83.148l-7.675-75.473H761.764l-41.574 75.473H639.6z m-53.726 228.977h93.381l-15.35-145.19z" fill="#A2A2A2" p-id="6758"></path></svg>