<?xml version="1.0" standalone="no"?><!DOCTYPE svg PUBLIC "-//W3C//DTD SVG 1.1//EN" "http://www.w3.org/Graphics/SVG/1.1/DTD/svg11.dtd"><svg t="1586681245463" class="icon" viewBox="0 0 1638 1024" version="1.1" xmlns="http://www.w3.org/2000/svg" xmlns:xlink="http://www.w3.org/1999/xlink" width="319.921875" height="200"><defs><style type="text/css"></style></defs><path d="M152 62h1260c54 0 90 36 90 90s-36 90-90 90H152c-54 0-90-36-90-90s36-90 90-90z m0 360h1260c54 0 90 36 90 90s-36 90-90 90H152c-54 0-90-36-90-90s36-90 90-90z m0 360h1260c54 0 90 36 90 90s-36 90-90 90H152c-54 0-90-36-90-90s36-90 90-90z"></path></svg>