<?xml version="1.0" standalone="no"?><!DOCTYPE svg PUBLIC "-//W3C//DTD SVG 1.1//EN" "http://www.w3.org/Graphics/SVG/1.1/DTD/svg11.dtd"><svg t="1584897382006" class="icon" viewBox="0 0 1024 1024" version="1.1" xmlns="http://www.w3.org/2000/svg" xmlns:xlink="http://www.w3.org/1999/xlink" width="200" height="200"><defs><style type="text/css"></style></defs><path d="M289.25846048 258.45377949V131.68066922c0-35.54386267 28.43509013-63.97895281 63.97895284-63.97895286h316.34037792c35.54386267 0 63.97895281 28.43509013 63.97895283 63.97895286v126.77311027H891.13453535c35.54386267 0 63.97895281 28.43509013 63.97895284 63.97895286v569.88659843c0 35.54386267-28.43509013 63.97895281-63.97895284 63.97895286H131.68066922c-35.54386267 0-63.97895281-28.43509013-63.97895286-63.97895286V321.24793689c0-35.54386267 28.43509013-63.97895281 63.97895286-63.97895282h157.57779126z m475.10296462 253.54622051H891.13453535V353.23741332c0-17.77193132-14.2175451-31.98947642-31.98947641-31.98947643H162.48535024c-17.77193132 0-31.98947642 14.2175451-31.98947642 31.98947643V512h126.77311025v-31.98947642c0-17.77193132 14.2175451-31.98947642 31.98947641-31.98947639 17.77193132 0 31.98947642 14.2175451 31.98947641 31.98947639v31.98947642H701.56726765v-31.98947642c0-17.77193132 14.2175451-31.98947642 31.98947642-31.98947639 17.77193132 0 31.98947642 14.2175451 31.98947644 31.98947639l-1.18479541 31.98947642z m0 62.79415744v31.98947642c0 17.77193132-14.2175451 31.98947642-31.98947642 31.9894764-17.77193132 0-31.98947642-14.2175451-31.98947638-31.9894764v-31.98947642h-379.13453541v31.98947642c0 17.77193132-14.2175451 31.98947642-31.98947641 31.9894764-17.77193132 0-31.98947642-14.2175451-31.98947641-31.9894764v-31.98947642H130.49587382v285.53569692c0 17.77193132 14.2175451 31.98947642 31.98947642 31.98947642h696.6597087c17.77193132 0 31.98947642-14.2175451 31.98947641-31.98947642v-285.53569692h-126.77311025z m-379.13453536-443.11348822c-17.77193132 0-31.98947642 14.2175451-31.98947642 31.98947642v94.78363385h316.34037792v-94.78363385c0-17.77193132-14.2175451-31.98947642-31.98947641-31.98947642H385.22688974z m0 0"></path></svg>