<?xml version="1.0" standalone="no"?><!DOCTYPE svg PUBLIC "-//W3C//DTD SVG 1.1//EN" "http://www.w3.org/Graphics/SVG/1.1/DTD/svg11.dtd"><svg t="1584897264267" class="icon" viewBox="0 0 1024 1024" version="1.1" xmlns="http://www.w3.org/2000/svg" xmlns:xlink="http://www.w3.org/1999/xlink" width="200" height="200"><defs><style type="text/css"></style></defs><path d="M929.824107 311.573201 558.689369 51.224662c-10.42442-9.588379-27.319206-9.588379-37.743626 0L149.809981 311.573201c-10.417257 9.584286-10.417257 25.12933 0 34.717709l780.014126 0C940.247504 336.702532 940.247504 321.16158 929.824107 311.573201L929.824107 311.573201zM539.817556 280.143375c-33.614585 0-60.864206-24.735357-60.864206-55.251372 0-30.514991 27.249621-55.250348 60.864206-55.250348 33.614585 0 60.864206 24.735357 60.864206 55.250348C600.681762 255.408017 573.432141 280.143375 539.817556 280.143375L539.817556 280.143375zM276.980335 397.682371l54.851259 0c11.69639 0 21.180392 8.707312 21.180392 19.452028l0 248.918209c0 10.739599-9.484002 19.446911-21.180392 19.446911l-54.851259 0c-11.69639 0-21.180392-8.707312-21.180392-19.446911L255.799944 417.133376C255.799944 406.389684 265.283945 397.682371 276.980335 397.682371L276.980335 397.682371zM512.361227 397.682371 567.273884 397.682371c11.756765 0 21.286816 8.750291 21.286816 19.544125l0 248.727875c0 10.794857-9.530051 19.549242-21.286816 19.549242l-54.912657 0c-11.756765 0-21.286816-8.753361-21.286816-19.549242L491.074412 417.226496C491.074412 406.432663 500.604462 397.682371 512.361227 397.682371L512.361227 397.682371zM748.07674 397.682371l54.578036 0c11.69639 0 21.180392 8.707312 21.180392 19.452028l0 248.918209c0 10.739599-9.484002 19.446911-21.180392 19.446911l-54.578036 0c-11.69639 0-21.180392-8.707312-21.180392-19.446911L726.896348 417.133376C726.895325 406.389684 736.379327 397.682371 748.07674 397.682371L748.07674 397.682371zM136.38625 827.653123l806.857495 0c5.789866 0 10.483772 4.305049 10.483772 9.622148l0 24.952298c0 5.317099-4.693906 9.626241-10.483772 9.626241L136.38625 871.853811c-5.785773 0-10.479679-4.310166-10.479679-9.626241l0-24.952298C125.906571 831.962266 130.600477 827.653123 136.38625 827.653123L136.38625 827.653123zM181.046403 728.948077l717.542306 0c5.785773 0 10.479679 4.310166 10.479679 9.625218l0 24.953322c0 5.317099-4.693906 9.626241-10.479679 9.626241l-717.542306 0c-5.785773 0-10.479679-4.310166-10.479679-9.626241l0-24.953322C170.566724 733.25722 175.260629 728.948077 181.046403 728.948077L181.046403 728.948077zM181.046403 728.948077"></path></svg>