<?xml version="1.0" standalone="no"?><!DOCTYPE svg PUBLIC "-//W3C//DTD SVG 1.1//EN" "http://www.w3.org/Graphics/SVG/1.1/DTD/svg11.dtd"><svg t="1584897463322" class="icon" viewBox="0 0 1024 1024" version="1.1" xmlns="http://www.w3.org/2000/svg" xmlns:xlink="http://www.w3.org/1999/xlink" width="200" height="200"><defs><style type="text/css"></style></defs><path d="M819.2 738.986667v180.6336h-24.3712l-189.098667 72.9088-175.3088-74.3424v-0.2048H409.6v-173.397334l-106.496-36.864a68.266667 68.266667 0 0 1 0-129.024l280.849067-97.28a68.266667 68.266667 0 0 1 44.714666 0l280.7808 97.28a68.266667 68.266667 0 0 1 44.782934 77.2096v155.8528a34.133333 34.133333 0 0 1-68.266667 0v-95.914666l-66.7648 23.1424z m-68.266667 23.620266l-122.2656 42.325334a68.266667 68.266667 0 0 1-44.714666 0L477.866667 768.2048v95.982933l129.024 54.6816 144.042666-55.5008V762.538667z m135.3728-119.125333l0.068267-0.546133-280.098133-96.938667-280.7808 97.211733 280.849066 97.211734 279.9616-96.938667zM238.933333 263.918933a34.133333 34.133333 0 1 1 0-68.266666h414.173867a34.133333 34.133333 0 1 1 0 68.266666H238.933333zM819.2 68.266667v383.522133a34.133333 34.133333 0 1 1-68.266667 0V68.266667H136.533333v819.2h204.8a34.133333 34.133333 0 1 1 0 68.266666H136.533333a68.266667 68.266667 0 0 1-68.266666-68.266666V68.266667a68.266667 68.266667 0 0 1 68.266666-68.266667h614.4a68.266667 68.266667 0 0 1 68.266667 68.266667zM238.933333 400.452267a34.133333 34.133333 0 1 1 0-68.266667h273.066667a34.133333 34.133333 0 0 1 0 68.266667h-273.066667z"></path></svg>