<?xml version="1.0" standalone="no"?><!DOCTYPE svg PUBLIC "-//W3C//DTD SVG 1.1//EN" "http://www.w3.org/Graphics/SVG/1.1/DTD/svg11.dtd"><svg t="1584897514511" class="icon" viewBox="0 0 1024 1024" version="1.1" xmlns="http://www.w3.org/2000/svg" xmlns:xlink="http://www.w3.org/1999/xlink" width="200" height="200"><defs><style type="text/css"></style></defs><path d="M621.714286 833.828571l-36.571429-43.885714 321.828572-343.771428 43.885714 43.885714-329.142857 343.771428c7.314286 0 7.314286 0 0 0zM204.8 168.228571L321.828571 43.885714 277.942857 0 160.914286 124.342857l43.885714 43.885714z m592.457143 826.514286c0 7.314286 0 14.628571-7.314286 21.942857-7.314286 7.314286-14.628571 7.314286-21.942857 7.314286H102.4c-14.628571 0-29.257143-14.628571-29.257143-29.257143s14.628571-29.257143 29.257143-29.257143h248.685714c-7.314286-7.314286-21.942857-14.628571-29.257143-21.942857-124.342857-131.657143-124.342857-336.457143 0-468.114286-7.314286-29.257143-14.628571-58.514286-7.314285-87.771428L226.742857 292.571429c-21.942857-21.942857-21.942857-65.828571 0-87.771429L351.085714 73.142857C373.028571 51.2 416.914286 51.2 438.857143 73.142857l343.771428 365.714286c21.942857 21.942857 21.942857 65.828571 0 87.771428L658.285714 658.285714c-21.942857 21.942857-65.828571 21.942857-87.771428 0l-146.285715-153.6c-7.314286 0-14.628571 7.314286-21.942857 7.314286-7.314286 0-14.628571 0-21.942857-7.314286l-7.314286 7.314286c-95.085714 102.4-95.085714 270.628571 0 373.028571 36.571429 36.571429 73.142857 58.514286 124.342858 73.142858h277.942857c14.628571 0 21.942857 14.628571 21.942857 36.571428zM424.228571 394.971429c-7.314286-7.314286-14.628571-14.628571-21.942857-14.628572-7.314286 0-14.628571 0-21.942857 7.314286-7.314286 14.628571-7.314286 36.571429 0 51.2 14.628571 14.628571 29.257143 14.628571 43.885714 0 7.314286-14.628571 7.314286-36.571429 0-43.885714z m-73.142857-58.514286c14.628571-14.628571 36.571429-14.628571 51.2-14.628572 21.942857 0 43.885714 7.314286 65.828572 29.257143 29.257143 29.257143 29.257143 80.457143 7.314285 117.028572l138.971429 146.285714 124.342857-131.657143-343.771428-365.714286-124.342858 124.342858 80.457143 95.085714z"></path><path d="M621.714286 833.828571l-36.571429-43.885714 321.828572-343.771428 43.885714 43.885714-329.142857 343.771428c7.314286 0 7.314286 0 0 0zM204.8 168.228571L321.828571 43.885714 277.942857 0 160.914286 124.342857l43.885714 43.885714z m592.457143 826.514286c0 7.314286 0 14.628571-7.314286 21.942857-7.314286 7.314286-14.628571 7.314286-21.942857 7.314286H102.4c-14.628571 0-29.257143-14.628571-29.257143-29.257143s14.628571-29.257143 29.257143-29.257143h248.685714c-7.314286-7.314286-21.942857-14.628571-29.257143-21.942857-124.342857-131.657143-124.342857-336.457143 0-468.114286-7.314286-29.257143-14.628571-58.514286-7.314285-87.771428L226.742857 292.571429c-21.942857-21.942857-21.942857-65.828571 0-87.771429L351.085714 73.142857C373.028571 51.2 416.914286 51.2 438.857143 73.142857l343.771428 365.714286c21.942857 21.942857 21.942857 65.828571 0 87.771428L658.285714 658.285714c-21.942857 21.942857-65.828571 21.942857-87.771428 0l-146.285715-153.6c-7.314286 0-14.628571 7.314286-21.942857 7.314286-7.314286 0-14.628571 0-21.942857-7.314286l-7.314286 7.314286c-95.085714 102.4-95.085714 270.628571 0 373.028571 36.571429 36.571429 73.142857 58.514286 124.342858 73.142858h277.942857c14.628571 0 21.942857 14.628571 21.942857 36.571428zM424.228571 394.971429c-7.314286-7.314286-14.628571-14.628571-21.942857-14.628572-7.314286 0-14.628571 0-21.942857 7.314286-7.314286 14.628571-7.314286 36.571429 0 51.2 14.628571 14.628571 29.257143 14.628571 43.885714 0 7.314286-14.628571 7.314286-36.571429 0-43.885714z m-73.142857-58.514286c14.628571-14.628571 36.571429-14.628571 51.2-14.628572 21.942857 0 43.885714 7.314286 65.828572 29.257143 29.257143 29.257143 29.257143 80.457143 7.314285 117.028572l138.971429 146.285714 124.342857-131.657143-343.771428-365.714286-124.342858 124.342858 80.457143 95.085714z"></path></svg>