<?xml version="1.0" standalone="no"?><!DOCTYPE svg PUBLIC "-//W3C//DTD SVG 1.1//EN" "http://www.w3.org/Graphics/SVG/1.1/DTD/svg11.dtd"><svg t="1584897314805" class="icon" viewBox="0 0 1024 1024" version="1.1" xmlns="http://www.w3.org/2000/svg" xmlns:xlink="http://www.w3.org/1999/xlink" width="200" height="200"><defs><style type="text/css"></style></defs><path d="M884.52838729 533.04993118l112.17397534-22.43479508-112.17397534-22.43479506c-3.04670056-51.51693683-16.61836672-99.98717309-38.49921623-143.74887212l85.86156137-75.61356857-108.29635646 36.56040678c-27.69727787-41.82288957-63.4267663-77.55237802-105.24965588-105.24965588l36.56040679-108.29635645-75.61356858 85.86156137c-43.76169904-21.8808495-92.2319353-35.45251567-143.74887211-38.49921623l-22.15782229-111.89700257-22.43479508 112.17397534c-51.51693683 3.04670056-99.98717309 16.61836672-143.74887211 38.49921623l-75.61356857-85.86156137 36.56040677 108.29635646c-41.82288957 27.69727787-77.55237802 63.4267663-105.24965587 105.24965588l-108.29635646-36.56040679 85.86156138 75.61356858c-21.8808495 43.76169904-35.45251567 92.2319353-38.49921623 143.74887211l-111.89700257 22.15782229 112.17397536 22.43479508c3.04670056 51.51693683 16.61836672 99.98717309 38.49921622 143.74887211l-85.86156138 75.61356857 108.29635644-36.56040677c27.69727787 41.82288957 63.4267663 77.55237802 105.2496559 105.24965587l-36.56040678 108.29635646 75.61356856-85.86156138c43.76169904 21.8808495 92.2319353 35.45251567 143.74887213 38.49921623l22.43479506 112.17397534 22.43479507-112.17397534c51.51693683-3.04670056 99.98717309-16.61836672 143.74887212-38.49921623l75.61356857 85.86156138-36.56040678-108.29635646c41.82288957-27.69727787 77.55237802-63.4267663 105.24965588-105.24965587l108.29635645 36.56040677-85.86156137-75.61356857c21.32690395-43.76169904 34.89857011-92.2319353 37.94527068-143.74887211z m-588.01320908 76.72145967c-17.17231228 0-31.02095121-13.84863893-31.0209512-31.02095119 0-17.17231228 13.84863893-31.02095121 31.0209512-31.02095121 17.17231228 0 31.02095121 13.84863893 31.02095122 31.02095121 0 17.17231228-13.84863893 31.02095121-31.02095122 31.02095119z m55.67152851 123.80683207c-6.92431946 0-12.46377503-5.53945557-12.46377504-12.46377504s5.53945557-12.46377503 12.46377504-12.46377503 12.46377503 5.53945557 12.46377504 12.46377503-5.53945557 12.46377503-12.46377504 12.46377504z m-24.65057729-328.21274269c0-58.16428352 47.08537237-105.24965589 105.24965588-105.24965589s105.24965589 47.08537237 105.24965588 105.24965589-47.08537237 105.24965589-105.24965588 105.24965587-105.24965589-47.08537237-105.24965588-105.24965587zM519.47826502 733.57822292c-37.66829788 0-68.13530355-30.46700565-68.13530354-68.13530357 0-37.66829788 30.46700565-68.13530355 68.13530354-68.13530352 37.66829788 0 68.13530355 30.46700565 68.13530354 68.13530352 0 37.66829788-30.46700565 68.13530355-68.13530354 68.13530357z m105.52662866-439.83277251a18.55717618 18.55717618 0 1 1 37.11435235 0 18.55717618 18.55717618 0 0 1-37.11435235 0zM662.11924603 733.57822292c-6.92431946 0-12.46377503-5.53945557-12.46377505-12.46377504s5.53945557-12.46377503 12.46377505-12.46377503 12.46377503 5.53945557 12.46377503 12.46377503-5.53945557 12.46377503-12.46377503 12.46377504z m43.48472624-185.84873447c-23.81965896 0-43.48472624-19.38809451-43.48472624-43.48472625s19.38809451-43.48472624 43.48472624-43.48472625c23.81965896 0 43.48472624 19.38809451 43.48472625 43.48472625s-19.66506729 43.48472624-43.48472625 43.48472625z"></path></svg>