<?xml version="1.0" standalone="no"?><!DOCTYPE svg PUBLIC "-//W3C//DTD SVG 1.1//EN" "http://www.w3.org/Graphics/SVG/1.1/DTD/svg11.dtd"><svg t="1591328295626" class="icon" viewBox="0 0 1024 1024" version="1.1" xmlns="http://www.w3.org/2000/svg" xmlns:xlink="http://www.w3.org/1999/xlink" width="200" height="200"><defs><style type="text/css"></style></defs><path d="M956.416 69.632 66.56 69.632c-35.84 0-64.512 28.672-64.512 64.512l0 612.352c0 35.84 28.672 64.512 64.512 64.512l48.128 0c3.072 9.216 8.192 18.432 16.384 26.624 2.048 2.048 4.096 3.072 7.168 4.096 80.896 20.48 100.352 47.104 105.472 60.416 5.12 15.36-3.072 27.648-4.096 27.648-5.12 7.168-4.096 16.384 3.072 21.504 7.168 5.12 16.384 4.096 21.504-2.048 7.168-9.216 17.408-31.744 9.216-56.32-11.264-33.792-52.224-61.44-122.88-79.872-6.144-7.168-7.168-12.288-7.168-17.408 0 0 0 0 0 0 0-6.144 4.096-12.288 11.264-17.408 0 0 0 0 1.024 0 2.048-1.024 4.096-3.072 7.168-4.096 1.024 0 1.024-1.024 2.048-1.024 3.072-1.024 6.144-3.072 9.216-4.096 5.12-1.024 15.36-3.072 30.72-3.072 26.624 0 58.368 5.12 93.184 15.36 6.144 3.072 11.264 5.12 17.408 8.192 2.048 1.024 3.072 2.048 5.12 3.072 7.168 4.096 15.36 9.216 22.528 14.336 1.024 0 1.024 1.024 2.048 1.024C462.848 889.856 449.536 931.84 449.536 931.84l0 0c-4.096 7.168-1.024 16.384 6.144 20.48 2.048 1.024 5.12 2.048 7.168 2.048 5.12 0 11.264-3.072 13.312-8.192 5.12-9.216 20.48-55.296-76.8-136.192l273.408 0c-98.304 79.872-81.92 126.976-76.8 136.192 3.072 5.12 8.192 8.192 14.336 8.192 2.048 0 5.12-1.024 7.168-2.048 7.168-4.096 10.24-13.312 6.144-20.48 0 0-14.336-41.984 104.448-125.952 8.192-6.144 16.384-11.264 24.576-15.36 1.024-1.024 3.072-2.048 4.096-2.048 6.144-3.072 12.288-6.144 18.432-9.216 34.816-10.24 66.56-15.36 93.184-15.36 15.36 0 25.6 2.048 30.72 3.072 3.072 1.024 7.168 2.048 10.24 4.096 1.024 0 1.024 1.024 2.048 1.024 3.072 1.024 5.12 3.072 7.168 4.096 0 0 0 0 0 0 7.168 5.12 11.264 11.264 11.264 17.408 0 0 0 0 0 0 0 4.096-2.048 10.24-7.168 17.408-69.632 18.432-111.616 46.08-122.88 79.872-8.192 24.576 2.048 47.104 9.216 56.32 5.12 7.168 15.36 8.192 21.504 2.048 7.168-5.12 8.192-15.36 2.048-21.504 0 0-9.216-12.288-4.096-27.648 4.096-13.312 24.576-39.936 105.472-60.416 3.072-1.024 5.12-2.048 7.168-4.096 8.192-8.192 13.312-17.408 16.384-26.624 34.816-1.024 62.464-29.696 62.464-64.512L1019.904 134.144C1020.928 98.304 992.256 69.632 956.416 69.632L956.416 69.632zM166.912 365.568l137.216 0c6.144 20.48 15.36 72.704-7.168 137.216l-2.048 4.096c-11.264 31.744-25.6 70.656 6.144 150.528 19.456 49.152 7.168 76.8-1.024 89.088 0 0 0 0 0 0-1.024-1.024-3.072-1.024-4.096-2.048-18.432-7.168-35.84-11.264-53.248-13.312-1.024 0-3.072 0-4.096-1.024-8.192-1.024-15.36-1.024-22.528-1.024-2.048 0-3.072 0-5.12 0-6.144 0-12.288 1.024-17.408 1.024-1.024 0-3.072 0-4.096 1.024-1.024 0-2.048 0-3.072 1.024 5.12-25.6 9.216-63.488-8.192-89.088-18.432-27.648-22.528-110.592 0-174.08C185.344 443.392 174.08 393.216 166.912 365.568L166.912 365.568zM773.12 658.432c30.72-80.896 17.408-119.808 6.144-150.528l-2.048-4.096c-23.552-65.536-13.312-117.76-7.168-137.216l137.216 0c-8.192 27.648-19.456 77.824-10.24 104.448 21.504 63.488 17.408 147.456 0 174.08-16.384 25.6-13.312 63.488-8.192 89.088-1.024 0-2.048-1.024-3.072-1.024-1.024 0-2.048 0-3.072 0-6.144-1.024-13.312-1.024-20.48-1.024-1.024 0-2.048 0-3.072 0-25.6 0-55.296 5.12-86.016 17.408C765.952 736.256 753.664 707.584 773.12 658.432L773.12 658.432zM990.208 745.472c0 18.432-14.336 32.768-31.744 33.792-2.048-6.144-5.12-11.264-10.24-17.408-1.024-1.024-1.024-1.024-2.048-2.048 0 0-1.024 0-1.024-1.024-2.048-2.048-5.12-4.096-7.168-7.168-1.024-1.024-2.048-1.024-3.072-2.048-2.048-2.048-4.096-3.072-7.168-4.096-1.024-1.024-2.048-1.024-3.072-2.048 0 0-1.024 0-1.024 0 0 0 0 0 0 0-6.144-19.456-14.336-62.464-1.024-82.944 25.6-38.912 27.648-133.12 4.096-201.728-6.144-18.432 3.072-63.488 13.312-94.208l6.144 0c8.192 0 15.36-7.168 15.36-15.36 0-8.192-7.168-15.36-15.36-15.36l-17.408 0L758.784 333.824l-13.312 0c-8.192 0-15.36 7.168-15.36 15.36 0 6.144 3.072 11.264 8.192 13.312-7.168 27.648-14.336 81.92 10.24 149.504l2.048 5.12c10.24 27.648 21.504 59.392-5.12 129.024-21.504 56.32-10.24 93.184 1.024 113.664-10.24 5.12-20.48 11.264-30.72 18.432l0 0L359.424 778.24c-1.024-1.024-2.048-1.024-3.072-2.048-8.192-6.144-17.408-11.264-25.6-15.36-1.024-1.024-2.048-1.024-3.072-2.048 11.264-19.456 23.552-56.32 1.024-112.64-26.624-69.632-15.36-101.376-5.12-129.024l2.048-5.12c24.576-67.584 16.384-121.856 10.24-149.504 5.12-3.072 8.192-7.168 8.192-13.312 0-8.192-7.168-15.36-15.36-15.36l-13.312 0L145.408 333.824l-17.408 0c-8.192 0-15.36 7.168-15.36 15.36 0 8.192 7.168 15.36 15.36 15.36l6.144 0c9.216 30.72 19.456 75.776 13.312 94.208-23.552 67.584-21.504 163.84 4.096 201.728 13.312 20.48 5.12 62.464-1.024 82.944 0 0-1.024 0-1.024 1.024-1.024 1.024-2.048 1.024-3.072 2.048-2.048 1.024-4.096 3.072-6.144 4.096-1.024 1.024-2.048 1.024-3.072 2.048-3.072 2.048-5.12 4.096-7.168 6.144 0 0-1.024 1.024-1.024 1.024-1.024 1.024-1.024 1.024-2.048 2.048-2.048 2.048-3.072 4.096-5.12 7.168 0 0 0 0 0 0-2.048 3.072-4.096 6.144-5.12 10.24L66.56 779.264c-18.432 0-33.792-15.36-33.792-33.792L32.768 134.144c0-18.432 15.36-33.792 33.792-33.792l889.856 0c18.432 0 33.792 15.36 33.792 33.792L990.208 745.472 990.208 745.472 990.208 745.472z" ></path><path d="M479.232 293.888c0-8.192-7.168-15.36-15.36-15.36-52.224 0-96.256-32.768-117.76-48.128-5.12-3.072-9.216-6.144-11.264-8.192-7.168-4.096-16.384-2.048-21.504 5.12-4.096 7.168-2.048 16.384 5.12 21.504 2.048 1.024 5.12 3.072 9.216 6.144 23.552 17.408 73.728 54.272 136.192 54.272C472.064 309.248 479.232 302.08 479.232 293.888L479.232 293.888z" ></path><path d="M700.416 222.208c-3.072 2.048-6.144 4.096-11.264 8.192-21.504 15.36-65.536 48.128-117.76 48.128-8.192 0-15.36 7.168-15.36 15.36 0 8.192 7.168 15.36 15.36 15.36 62.464 0 112.64-35.84 136.192-54.272 4.096-3.072 7.168-5.12 9.216-6.144 7.168-4.096 9.216-14.336 5.12-21.504C716.8 220.16 707.584 218.112 700.416 222.208L700.416 222.208z" ></path><path d="M621.568 642.048l-103.424-47.104c-4.096-2.048-9.216-2.048-13.312 0l-92.16 47.104c-7.168 4.096-10.24 13.312-7.168 20.48 4.096 7.168 13.312 10.24 20.48 7.168l84.992-43.008 97.28 44.032c2.048 1.024 4.096 1.024 6.144 1.024 6.144 0 11.264-3.072 14.336-9.216C632.832 654.336 629.76 645.12 621.568 642.048L621.568 642.048z" ></path></svg>