<?xml version="1.0" standalone="no"?><!DOCTYPE svg PUBLIC "-//W3C//DTD SVG 1.1//EN" "http://www.w3.org/Graphics/SVG/1.1/DTD/svg11.dtd"><svg t="1585207953775" class="icon" viewBox="0 0 1346 1024" version="1.1" xmlns="http://www.w3.org/2000/svg" xmlns:xlink="http://www.w3.org/1999/xlink" width="262.890625" height="200"><defs><style type="text/css"></style></defs><path d="M0 0h76.560748v1024H0z"></path><path d="M1.595016 947.439252h1344.59813v76.560748H1.595016zM153.5681 745.398629l396.999377-396.999377 122.92785 122.927851-396.999377 396.999377zM589.150903 631.067913l439.857446-439.857446 122.92785 122.927851-439.841495 439.857445z"></path><path d="M426.794268 471.0081l122.92785-122.943801 281.950904 281.950903-122.927851 122.943801zM1253.682243 387.588785V105.271028c0-7.975078-6.380062-12.760125-12.760125-12.760125H958.604361c-11.165109 0-17.545171 14.35514-9.570093 22.330218l282.317757 282.317758c7.975078 7.975078 22.330218 3.190031 22.330218-9.570094z"></path></svg>