<?xml version="1.0" standalone="no"?><!DOCTYPE svg PUBLIC "-//W3C//DTD SVG 1.1//EN" "http://www.w3.org/Graphics/SVG/1.1/DTD/svg11.dtd"><svg t="1585534575045" class="icon" viewBox="0 0 1084 1024" version="1.1" xmlns="http://www.w3.org/2000/svg" xmlns:xlink="http://www.w3.org/1999/xlink" width="211.71875" height="200"><defs><style type="text/css"></style></defs><path d="M274.51 261.743h504.819V152.656c0-61.604-84.669-116.374-151.452-116.374H425.962c-66.784 0-151.452 54.77-151.452 116.374v109.087z m-24.419 21.378V145.1C250.091 64.736 348.64 0 430.147 0h196.435c81.477 0 180.056 64.736 180.056 145.099V283.12H250.091z m696.316 469.62H739.735c-9.455 0-17.103-6.714-17.103-15.054s7.648-15.055 17.103-15.055h206.733c9.394 0 17.042 6.715 17.042 15.055s-7.648 15.055-17.103 15.055z m-30.14 90.33H739.705c-9.394 0-17.072-6.745-17.072-15.055 0-8.34 7.678-15.055 17.072-15.055h176.564c9.454-0.06 17.132 6.715 17.132 15.055 0 8.31-7.678 15.055-17.163 15.055zM451.646 150.548h150.549v30.11H451.645v-30.11z m52.632-60.219h31.886v131.76h-31.916V90.329z m183.73 481.755c-51.187 0-55.704 58.924-55.704 58.924v341.384c0 10.087 33.573 36.011 48.898 47.061 4.697 3.403 6.805 4.276 6.805 4.276H938.49l145.46-142.78V626.462c0-43.78-58.293-54.378-58.293-54.378h-337.65z m346.41 316.543h-65.94c-21.588 0-21.377 16.26-21.377 16.26v64.825c0 22.944-11.713 23.907-11.713 23.907H691.77c-26.497 0-29.357-22.401-29.357-22.401V636.91c0-29.357 29.357-34.716 29.357-34.716s301.217 1.505 328.948 1.505c27.67 0 33.12 32.82 33.12 32.82v232.928c-0.06 18.216-19.42 19.18-19.42 19.18zM613.335 991.45c1.415-1.595 50.193-4.667 19.873 27.039a17.042 17.042 0 0 1-12.345 5.239l-188.336-0.12a17.223 17.223 0 0 1-12.225-5.029c-68.168-69.252-111.406-209.593-111.406-329.76 0-9.004 7.648-16.2 16.892-16.2 9.334 0 16.861 7.317 16.861 16.2 0 107.732 38.24 238.618 97.405 302.511l173.281 0.12zM526.92 598.46c-139.197 0-252.41-130.526-252.41-290.95h-33.632c0 178.791 128.358 324.281 286.042 324.281 157.805 0 286.042-145.49 286.042-324.28H779.33c0 160.423-113.213 290.949-252.41 290.949z m161.087 425.269H587.891c-40.768-0.06-78.134-0.12-89.937-0.18-177.707-1.054-356.499-5.3-448.393-9.124C-2.5 1012.257-0.723 946.77 0.36 903.561c0.211-6.443 0.301-12.555 0.301-18.186 0-143.081 311.967-228.261 419.458-241.48 35.62-4.305 105.414-4.305 141.154 0 18.518 2.259 43.148 6.685 71.21 13.188 0.12 0.03-0.18 0.904-0.18 2.65 0.18 1.566 0 7.738 0 10.388v18.698c0 33.813 31.042 128.689 3.883 221.487-3.312 11.2-4.064 32.217-3.884 41.521 0.03 1.716 0.18 12.797 0.18 21.227 0 2.71 3.253 7.167 6.474 10.84s2.289 2.077 3.343 3.192c6.985 7.346 19.631 17.433 27.46 23.786 13.338 10.84 21.227 12.857 18.246 12.857z m-263.61-346.472c-132.121 16.26-389.409 104.48-389.409 207.998 0 5.871-0.24 12.345-0.33 19.12-0.784 30.079-1.988 75.544 16.44 76.207 112.128 4.817 353.968 10.147 564.556 9.484 4.305 0 10.448-10.538 16.83-40.256 13.159-61.424 26.588-171.023 21.8-202.488-3.914-25.894-14.242-57.419-21.8-58.503-58.231-8.13-0.18 0-75.394-11.442-15.898-2.438-41.19-3.07-66.271-3.07-25.112 0-50.193 1.023-66.422 2.95z"></path></svg>