<svg t="1587979328393" class="icon" viewBox="0 0 1024 1024" version="1.1" xmlns="http://www.w3.org/2000/svg" p-id="2115" width="200" height="200"><path d="M874.666667 128c-4.266667 0-4.266667 0-8.533333 0L640 217.6 384 128 145.066667 209.066667C136.533333 213.333333 128 217.6 128 230.4l0 644.266667C128 887.466667 136.533333 896 149.333333 896c4.266667 0 4.266667 0 8.533333 0L384 806.4l256 89.6 238.933333-81.066667c8.533333-4.266667 17.066667-12.8 17.066667-21.333333L896 149.333333C896 136.533333 887.466667 128 874.666667 128zM640 810.666667l-256-89.6L384 213.333333l256 89.6L640 810.666667z" p-id="2116"></path></svg>